<svg width="14" height="14" viewBox="0 0 14 14" fill="none" xmlns="http://www.w3.org/2000/svg">
<path d="M13.0278 14H9.52778C8.99072 14 8.55556 13.5983 8.55556 13.1026V9.87179C8.55556 9.47513 8.2075 9.15385 7.77778 9.15385H6.22222C5.7925 9.15385 5.44444 9.47513 5.44444 9.87179V13.1026C5.44444 13.5983 5.00928 14 4.47222 14H0.972222C0.435167 14 0 13.5983 0 13.1026V6.25082C0 5.42554 0.409889 4.64585 1.11183 4.13538L6.63872 0.115231C6.85067 -0.0384103 7.14933 -0.0384103 7.36089 0.115231L12.8886 4.13538C13.5905 4.64585 14 5.42518 14 6.2501V13.1026C14 13.5983 13.5648 14 13.0278 14Z" fill="white"/>
</svg>
