<svg width="14" height="14" viewBox="0 0 14 14" fill="none" xmlns="http://www.w3.org/2000/svg">
<path d="M2.33333 1.16667C2.33333 0.522335 1.811 0 1.16667 0C0.522334 0 0 0.522335 0 1.16667V12.8333C0 13.4777 0.522334 14 1.16667 14C1.811 14 2.33333 13.4777 2.33333 12.8333V1.16667Z" fill="#B3B3B3"/>
<path d="M6.33333 1.16667C6.33333 0.522334 5.811 0 5.16667 0C4.52233 0 4 0.522334 4 1.16667V12.8333C4 13.4777 4.52233 14 5.16667 14C5.811 14 6.33333 13.4777 6.33333 12.8333V1.16667Z" fill="#B3B3B3"/>
<path fill-rule="evenodd" clip-rule="evenodd" d="M10.2917 1.04232C10.1054 0.425498 9.45438 0.0764583 8.83756 0.26272C8.22074 0.448981 7.8717 1.10001 8.05796 1.71683L11.4305 12.8854C11.6168 13.5022 12.2678 13.8513 12.8846 13.665C13.5015 13.4787 13.8505 12.8277 13.6642 12.2109L10.2917 1.04232ZM8.95319 0.645642C9.35853 0.523242 9.78635 0.75261 9.90875 1.15795L13.2813 12.3265C13.4037 12.7319 13.1743 13.1597 12.769 13.2821C12.3637 13.4045 11.9358 13.1751 11.8134 12.7698L8.44088 1.6012C8.31848 1.19586 8.54785 0.768042 8.95319 0.645642Z" fill="#B3B3B3"/>
</svg>
