<svg width="14" height="14" viewBox="0 0 14 14" fill="none" xmlns="http://www.w3.org/2000/svg">
<path fill-rule="evenodd" clip-rule="evenodd" d="M1 0C0.447715 0 0 0.447716 0 1V13C0 13.5523 0.447716 14 1 14H13C13.5523 14 14 13.5523 14 13V1C14 0.447715 13.5523 0 13 0H1ZM7.5 3C7.5 2.72386 7.27614 2.5 7 2.5C6.72386 2.5 6.5 2.72386 6.5 3V6.5H3C2.72386 6.5 2.5 6.72386 2.5 7C2.5 7.27614 2.72386 7.5 3 7.5H6.5V11C6.5 11.2761 6.72386 11.5 7 11.5C7.27614 11.5 7.5 11.2761 7.5 11V7.5H11C11.2761 7.5 11.5 7.27614 11.5 7C11.5 6.72386 11.2761 6.5 11 6.5H7.5V3Z" fill="#B3B3B3"/>
</svg>
